<?xml version="1.0" encoding="UTF-8" standalone="no"?>
<svg xmlns:svg="http://www.w3.org/2000/svg" xmlns="http://www.w3.org/2000/svg" xmlns:xlink="http://www.w3.org/1999/xlink" width="630" height="230">
    <defs>
        <style type="text/css"><![CDATA[
            path {
                fill: #eee;
            }
            .chars {
                stroke: #eee;
                stroke-width: 2;
                fill-rule: evenodd;
            }
        ]]></style>
        <symbol viewBox="14 6 842 313" id="all">
            <g> <!-- Feather/V -->
                <!-- Top -->
                <path d="M 60,121 92,45 C 87,31 60,6 60,6 c 0,0 -24,25 -33,39 l 33,76 z"/>
                <!-- Bottom -->
                <path stroke-width="0" d="M 60,163 16,60 C 10,70 8,92 7,100 c -1,29 -0,37 -0,42 0,6 3,25 26,43 4,3 14,12 18,19 -19,-22 -35,-9 -44,-50 0,80 22,43 44,92 -14,-19 -17,-18 -20,-20 8,11 25,38 26,46 1,8 -0,31 0,33 0,2 4,1 5,0 0,-1 -1,-21 0,-25 4,-7 12,-22 28,-31 -7,0 -22,10 -28,21 C 64,257 107,242 107,196 101,215 84,221 75,237 77,214 113,198 113,158 113,134 113,120 112,111 c -1,-9 -8,-45 -6,-53 L 60,163 Z"/>
            </g>
            <g class="chars"> <!-- Letters -->
                <!-- A --> <path d="M133,163 l47,-124 l47,124 l-14,0 l-15,-40 l-36,0 l-15,40 z m32,-52 l15,-42 l15,42 Z"/>
                <!-- R --> <path d="m262,162 l0,-118 l40,0 a17,20 0 0,1 5,63 l32,56 l-17,0 l-30,-53 l-16,0 l0,52 z m14,-64 l0,-41 l24,0 a17,20 0 0,1 0,41 Z"/>
                <!-- J --> <path d="m365,163 m0,-15 l9,-9 q4,5,7,7 a20,20 0 0,0 32,-18 l0,-86 l14,0 l0,93 q-5,25,-30,28 q-18,2,-32,-15 Z" />
                <!-- E --> <path d="M 470,163 l0,-119 l61,0 l0,12 l-49,0 l0,37 l40,0 l0,12 l-40,0 l0,46 l49,0 l0,12 Z"/>
                <!-- L --> <path d="M 573,163 l0,-119 l12,0 l0,107 l51,0 l0,12 Z"/>
                <!-- U --> <path d="M 668,43 l13,0 l0,70 q-2,37,20,37 q23,0,20,-37 l0,-70 l13,0 l0,70 q2,50,-33,50 q-35,0,-33,-50 l0,-70 z" />
                <!-- S --> <path d="m 825.7,50 c -6.6,-7 -17.4,-9.6 -25.3,-9.6 -10.8,0 -18.6,3.8 -22.9,7.4 -5.1,4.2 -10.5,11.9 -10.5,21.7 0,3.7 0.7,7.1 2,10.2 1.3,3.1 3.2,6 5.7,8.5 2.5,2.5 4.9,4.5 7.4,5.9 2.5,1.4 8,4.1 16.5,8 8.3,3.8 14,7.5 17,11.2 3.1,3.7 4.8,9.5 4.8,14.8 0,7.1 -3,12.5 -6.9,16.3 -4.7,4.1 -11,6.5 -18.8,6.1 -7.7,-0.4 -15.5,-3.3 -19.4,-9 l -7,9.1 C 772.5,157.3 784.4,163.3 794.6,163.3 c 10.5,0 19.6,-3.2 27.3,-9.5 C 829.6,147.5 833.5,138.5 833.5,127 c 0,-4.6 -0.9,-10.8 -2.6,-14.5 -1.8,-3.7 -4.1,-7 -7,-9.7 C 821,100.1 818.1,97.9 815.3,96.3 812.5,94.7 806.7,91.9 798,87.9 786.2,82.5 780.3,76.2 780.3,69 c 0,-6 3.4,-10.5 6.2,-12.9 2.8,-2.4 7,-3.9 14.1,-3.9 6.3,0 13,3 17.7,7 L 825.7,50 Z"/>
            </g>
    </symbol>
</defs>
<g>
    <title>Varjelus Logo</title>
    <use x="0" y="0" xlink:href="#all" width="100%" height="100%" />
</g>
</svg>
