<?xml version="1.0" encoding="utf-8"?>
<!-- Generator: Adobe Illustrator 19.1.0, SVG Export Plug-In . SVG Version: 6.00 Build 0)  -->
<svg version="1.1" id="Layer_1" xmlns="http://www.w3.org/2000/svg" xmlns:xlink="http://www.w3.org/1999/xlink" x="0px" y="0px"
	 viewBox="0 0 121 313" style="enable-background:new 0 0 121 313;" xml:space="preserve">
<defs>
	<style type="text/css"><![CDATA[
		path {
			fill: #eee;
		}
		.chars {
			stroke: #eee;
			stroke-width: 2;
			fill-rule: evenodd;
		}
	]]></style>
</defs>
<style type="text/css">
	.st0{clip-path:url(#SVGID_2_);}
</style>
<g>
	<defs>
		<rect id="SVGID_1_" x="6.9" y="6" width="828.1" height="302"/>
	</defs>
	<clipPath id="SVGID_2_">
		<use xlink:href="#SVGID_1_"  style="overflow:visible;"/>
	</clipPath>
	<path class="st0" d="M60.1,121.4L92.5,45C87.1,31,60.1,6,60.1,6S36.3,30.9,26.9,45L60.1,121.4z"/>
	<path class="st0" d="M60.1,163L15.9,60.7c-5.4,9.3-7.6,32-8,39.8C6.4,130.2,7,137.8,7,143c0,6.9,3.3,25.8,26.1,43.4
		c4.8,3.7,14.4,12.2,18.9,19.5c-19.9-22.3-35.5-9.8-44.5-50.4c0.8,80.1,22.1,43,44.1,92.2c-14.5-19.1-17.5-18.9-20.9-20.9
		c8.4,11.8,25.6,38.2,26.7,46.6c1.2,8.4-0.3,31.1,0,33.2c0.3,2.1,4.9,1.3,5.2,0c0.3-1.3-1.6-21,0.9-25.2C68,274,75.9,259,91.9,250.4
		c-7.4,0.7-22.7,10.9-28.5,21.9c1.2-15.2,44.1-30.1,44.5-76.2c-6.6,19.8-23.4,25.8-32,41.4c1.7-22.7,37.5-39.4,37.5-78.9
		c0.3-23.8,0.1-38.2-0.9-47.5c-1-9.2-8.1-45.6-6.9-53.3L60.1,163z"/>
</g>
<g>
	<defs>
		<rect id="SVGID_3_" x="6.9" y="6" width="828.1" height="302"/>
	</defs>
	<clipPath id="SVGID_4_">
		<use xlink:href="#SVGID_3_"  style="overflow:visible;"/>
	</clipPath>
</g>
</svg>
